<svg width="36" height="36" viewBox="0 0 36 36" fill="none" xmlns="http://www.w3.org/2000/svg">
<path d="M5.75282 17.5102H12.1099C11.5802 17.2397 11.1062 16.9085 10.6879 16.5167C10.279 16.1249 9.95836 15.6864 9.72601 15.2013C9.50295 14.7162 9.39142 14.1891 9.39142 13.62C9.39142 12.6125 9.72136 11.7775 10.3812 11.1152C11.0411 10.4528 11.8729 10.1216 12.8767 10.1216C13.4343 10.1216 13.9641 10.2336 14.466 10.4575C14.9771 10.672 15.4418 10.9846 15.8601 11.395C16.2783 11.7962 16.6361 12.2766 16.9335 12.8364V6.23143H18.7877V12.8364C19.0851 12.2766 19.4382 11.7962 19.8472 11.395C20.2654 10.9846 20.7301 10.672 21.2413 10.4575C21.7525 10.2336 22.2869 10.1216 22.8445 10.1216C23.8483 10.1216 24.6801 10.4528 25.3399 11.1152C25.9998 11.7775 26.3298 12.6125 26.3298 13.62C26.3298 14.1891 26.2136 14.7162 25.9812 15.2013C25.7489 15.6864 25.4282 16.1249 25.0193 16.5167C24.6104 16.9085 24.1364 17.2397 23.5973 17.5102H29.9684V19.2034H20.1678C20.3723 19.6139 20.6604 20.0431 21.0322 20.4909C21.4132 20.9386 21.8408 21.3678 22.3147 21.7783C22.798 22.1794 23.2906 22.5246 23.7925 22.8138C24.3037 23.0936 24.7916 23.2662 25.2563 23.3315C25.6466 23.3875 25.9441 23.5274 26.1485 23.7513C26.3623 23.9752 26.4692 24.2644 26.4692 24.6189C26.4692 24.9548 26.3437 25.2533 26.0928 25.5145C25.8418 25.7757 25.4933 25.8737 25.0472 25.8084C24.5267 25.7244 23.9598 25.5285 23.3464 25.2207C22.733 24.9035 22.1289 24.4977 21.534 24.0032C20.9392 23.5088 20.4048 22.9537 19.9308 22.338C19.4568 21.713 19.1083 21.0506 18.8853 20.3509H18.7877V30.3003H16.9335V20.3509H16.8359C16.6036 21.0506 16.2504 21.713 15.7764 22.338C15.3117 22.9537 14.7819 23.5088 14.1871 24.0032C13.6016 24.4977 12.9975 24.9035 12.3748 25.2207C11.7614 25.5285 11.1898 25.7244 10.6601 25.8084C10.2232 25.8737 9.87936 25.7757 9.62842 25.5145C9.38677 25.2533 9.26595 24.9548 9.26595 24.6189C9.26595 24.2644 9.36819 23.9752 9.57265 23.7513C9.78642 23.5274 10.0838 23.3875 10.4649 23.3315C10.9203 23.2662 11.3989 23.0936 11.9008 22.8138C12.412 22.5246 12.9092 22.1794 13.3925 21.7783C13.8758 21.3678 14.308 20.9386 14.689 20.4909C15.0701 20.0431 15.3582 19.6139 15.5534 19.2034H5.75282V17.5102ZM16.3062 17.3283H16.6826V16.9645C16.6826 16.3301 16.585 15.733 16.3898 15.1733C16.1946 14.6136 15.9298 14.1145 15.5952 13.676C15.2606 13.2375 14.8749 12.8924 14.4381 12.6405C14.0013 12.3886 13.5366 12.2626 13.044 12.2626C12.5793 12.2626 12.2075 12.4072 11.9287 12.6964C11.6499 12.9763 11.5105 13.3635 11.5105 13.8579C11.5105 14.2684 11.6359 14.6835 11.8869 15.1033C12.1378 15.5138 12.4863 15.887 12.9324 16.2228C13.3786 16.5493 13.8897 16.8152 14.466 17.0205C15.0422 17.2257 15.6556 17.3283 16.3062 17.3283ZM19.415 17.3283C20.0563 17.3283 20.6651 17.2257 21.2413 17.0205C21.8268 16.8152 22.338 16.5493 22.7748 16.2228C23.2209 15.887 23.5694 15.5138 23.8204 15.1033C24.0806 14.6835 24.2107 14.2684 24.2107 13.8579C24.2107 13.3635 24.0713 12.9763 23.7925 12.6964C23.5137 12.4072 23.1373 12.2626 22.6633 12.2626C22.18 12.2626 21.7199 12.3886 21.2831 12.6405C20.8463 12.8924 20.4559 13.2375 20.1121 13.676C19.7775 14.1145 19.5126 14.6136 19.3174 15.1733C19.1223 15.733 19.0247 16.3301 19.0247 16.9645V17.3283H19.415ZM29.3131 6.72121C30.0195 7.43954 30.4749 8.29315 30.6794 9.28202C30.8931 10.2709 31 11.4044 31 12.6825V23.3315C31 24.6003 30.8931 25.7338 30.6794 26.732C30.4749 27.7208 30.0195 28.5745 29.3131 29.2928C28.5882 30.0111 27.7285 30.4729 26.734 30.6781C25.7396 30.8927 24.6104 31 23.3464 31H12.6536C11.3803 31 10.2465 30.8927 9.25201 30.6781C8.26685 30.4729 7.41644 30.0111 6.7008 29.2928C5.97587 28.5745 5.51117 27.7208 5.3067 26.732C5.10223 25.7338 5 24.6003 5 23.3315V12.6545C5 11.395 5.10223 10.2709 5.3067 9.28202C5.52046 8.29315 5.98517 7.43954 6.7008 6.72121C7.41644 6.00287 8.26685 5.53642 9.25201 5.32185C10.2465 5.10728 11.371 5 12.6257 5H23.3464C24.6104 5 25.7396 5.10728 26.734 5.32185C27.7285 5.53642 28.5882 6.00287 29.3131 6.72121ZM28.2676 12.2906C28.2676 11.563 28.2025 10.8866 28.0724 10.2616C27.9516 9.63653 27.6913 9.12809 27.2917 8.73628C26.9106 8.34446 26.3995 8.08324 25.7582 7.95264C25.1262 7.82203 24.4524 7.75673 23.7367 7.75673H12.3051C11.5709 7.75673 10.8831 7.82203 10.2418 7.95264C9.60054 8.07391 9.08472 8.33513 8.69437 8.73628C8.31332 9.11877 8.05773 9.6272 7.92761 10.2616C7.80679 10.8959 7.74638 11.5863 7.74638 12.3326V23.7094C7.74638 24.437 7.80679 25.118 7.92761 25.7524C8.05773 26.3775 8.31332 26.8859 8.69437 27.2777C9.08472 27.6695 9.59589 27.9307 10.2279 28.0614C10.8692 28.192 11.5523 28.2573 12.2772 28.2573H23.7367C24.4524 28.2573 25.1262 28.192 25.7582 28.0614C26.3995 27.9307 26.9106 27.6695 27.2917 27.2777C27.682 26.8859 27.9423 26.3775 28.0724 25.7524C28.2025 25.118 28.2676 24.437 28.2676 23.7094V12.2906Z" fill="#5FF4AD"/>
</svg>
