<svg width="34" height="32" viewBox="0 0 34 32" fill="none" xmlns="http://www.w3.org/2000/svg">
<g id="icon">
<path id="&#226;&#130;&#184;" d="M11.9677 27L14.3548 13.8H10L10.7419 9.71429H24.129L23.3871 13.8H19.0323L16.6452 27H11.9677ZM10.9355 8.77143L11.6129 5H25L24.3226 8.77143H10.9355Z" fill="white"/>
<rect id="Rectangle 22177" x="1" width="32" height="32" rx="8" fill="#5FF4AD"/>
<path id="$" d="M19.4774 12.1268C19.5462 11.2933 19.314 10.7407 18.7806 10.4689L18.2129 13.9207L18.8065 14.111C19.8903 14.4553 20.7763 14.7995 21.4645 15.1438C22.1527 15.47 22.7462 15.9502 23.2452 16.5844C23.7441 17.2005 23.9935 17.9977 23.9935 18.9762C23.9935 19.3386 23.9591 19.692 23.8903 20.0362C23.7183 21.0691 23.2968 22.0204 22.6258 22.8901C21.972 23.7418 21.086 24.4304 19.9677 24.9558C18.8667 25.4813 17.6194 25.7712 16.2258 25.8256L15.8645 28H14.2387L14.6 25.7712C12.8796 25.6082 11.5118 25.0827 10.4968 24.1948C9.49892 23.2888 9 22.0747 9 20.5527C9 20.3715 9.0172 20.0997 9.05161 19.7373H14.471C14.4022 20.6614 14.686 21.2684 15.3226 21.5583L15.8903 18.0793C14.6344 17.6988 13.6538 17.3635 12.9484 17.0736C12.2602 16.7656 11.6323 16.2854 11.0645 15.6331C10.514 14.9807 10.2387 14.12 10.2387 13.051C10.2387 12.6704 10.2731 12.299 10.3419 11.9366C10.6344 10.2514 11.486 8.90147 12.8968 7.88675C14.3075 6.87203 15.9677 6.31031 17.8774 6.20159L18.2387 4H19.8645L19.5032 6.20159C21.2409 6.34655 22.5914 6.85391 23.5548 7.72367C24.5183 8.59343 25 9.79842 25 11.3386C25 11.5017 24.9828 11.7644 24.9484 12.1268H19.4774ZM15.7871 11.692C15.7699 11.7463 15.7613 11.8369 15.7613 11.9638C15.7613 12.4711 16.071 12.906 16.6903 13.2684L17.1806 10.3058C16.3548 10.4507 15.8903 10.9128 15.7871 11.692ZM18.4968 20.1721C18.514 20.1178 18.5226 20.0362 18.5226 19.9275C18.5226 19.3839 18.1613 18.949 17.4387 18.6229L16.9226 21.6942C17.3355 21.6036 17.6796 21.4315 17.9548 21.1778C18.2473 20.906 18.428 20.5708 18.4968 20.1721Z" fill="#08673A"/>
</g>
</svg>
