<?xml version="1.0" standalone="no"?>
<!DOCTYPE svg PUBLIC "-//W3C//DTD SVG 20010904//EN"
 "http://www.w3.org/TR/2001/REC-SVG-20010904/DTD/svg10.dtd">
<svg version="1.0" xmlns="http://www.w3.org/2000/svg"
 width="128.000000pt" height="128.000000pt" viewBox="0 0 128.000000 128.000000"
 preserveAspectRatio="xMidYMid meet">
<metadata>
Created by potrace 1.14, written by Peter Selinger 2001-2017
</metadata>
<g transform="translate(0.000000,128.000000) scale(0.100000,-0.100000)"
fill="#000000" stroke="none">
<path d="M230 1273 c-109 -13 -186 -69 -212 -155 -10 -32 -13 -149 -13 -478 0
-495 2 -508 75 -574 66 -60 79 -61 560 -61 495 0 508 2 574 75 60 66 61 79 61
560 0 494 -2 508 -75 574 -64 58 -75 59 -525 61 -226 2 -426 1 -445 -2z m191
-333 c41 -55 152 -204 248 -332 95 -128 187 -253 204 -278 l31 -45 -29 19
c-28 18 -236 174 -500 375 -160 122 -151 111 -131 162 35 88 89 199 96 199 5
0 41 -45 81 -100z m138 -28 c72 -63 99 -82 115 -78 12 3 102 37 201 75 99 38
181 66 183 61 1 -4 -42 -85 -98 -179 -55 -95 -100 -176 -100 -181 0 -5 25 -72
55 -151 31 -78 54 -143 52 -145 -3 -3 -38 41 -232 296 -77 102 -176 232 -220
288 -120 155 -117 156 44 14z m-26 -433 c40 -28 72 -55 72 -60 0 -5 -49 -32
-110 -60 -60 -28 -143 -66 -183 -85 -41 -19 -76 -34 -78 -34 -3 0 37 55 87
123 92 121 129 167 136 167 2 0 36 -23 76 -51z"/>
<path d="M322 974 c-34 -70 -32 -75 36 -68 31 4 58 8 59 9 2 1 -14 25 -35 53
l-39 51 -21 -45z"/>
<path d="M551 591 l-34 -6 56 -38 c48 -33 62 -38 102 -35 l46 3 -31 43 c-34
45 -52 49 -139 33z"/>
<path d="M767 604 c-12 -13 56 -84 80 -84 20 0 23 3 17 28 -12 50 -23 62 -58
62 -18 0 -35 -3 -39 -6z"/>
</g>
</svg>
