<svg width="1178" height="800" viewBox="0 0 1178 800" fill="none" xmlns="http://www.w3.org/2000/svg">
<g opacity="0.8">
<mask id="mask0_4729_17650" style="mask-type:alpha" maskUnits="userSpaceOnUse" x="0" y="0" width="1178" height="800">
<rect width="1178" height="800" fill="url(#paint0_radial_4729_17650)"/>
</mask>
<g mask="url(#mask0_4729_17650)">
<path d="M343.426 -160.88C341.94 -160.228 340.457 -159.57 338.977 -158.907L571.575 370.664L251.136 -110.5C249.748 -109.58 248.365 -108.654 246.985 -107.722L569.873 377.855L149.331 -25.8451C148.17 -24.6469 147.015 -23.4441 145.864 -22.2365L562.112 377.35L82.9308 55.6201C81.993 56.996 81.0607 58.3759 80.1339 59.7598L564.301 384.837L20.6135 172.532C19.9949 174.077 19.3825 175.625 18.7761 177.176L556.905 387.306L-9.89644 273.256C-10.2396 274.886 -10.5763 276.519 -10.9064 278.155L561.771 393.392L-23 405.342C-22.9856 407.01 -22.9645 408.677 -22.9368 410.341L555.905 398.513L-13.088 510.382C-12.7893 512.021 -12.484 513.659 -12.1723 515.294L562.721 402.264L24.9868 637.995C25.6357 639.531 26.2907 641.064 26.9518 642.593L559.269 409.241L74.5153 731.595C75.4186 732.993 76.3275 734.388 77.2419 735.779L567.019 410.082L158.815 835.324C160.001 836.497 161.192 837.664 162.388 838.827L566.483 417.862L240.603 903.251C241.972 904.201 243.345 905.145 244.722 906.084L573.957 415.698L358.619 967.197C360.16 967.824 361.704 968.444 363.252 969.059L576.439 423.069L460.637 998.566C462.266 998.914 463.897 999.256 465.53 999.59L582.518 418.203L594.652 1012H598.035C598.574 1011.99 599.113 1011.98 599.651 1011.97L587.638 424.069L701.22 1001.81C702.859 1001.51 704.495 1001.2 706.13 1000.88L591.392 417.266L830.453 962.63C831.985 961.972 833.514 961.307 835.04 960.637L598.366 420.712L924.908 911.787C926.299 910.872 927.687 909.952 929.071 909.026L599.208 412.955L1029 825.55C1030.16 824.352 1031.32 823.149 1032.47 821.942L606.994 413.498L1096.61 742.23C1097.54 740.851 1098.47 739.467 1099.39 738.079L604.806 406.012L1159.42 622.585C1160.03 621.035 1160.63 619.481 1161.22 617.924L612.194 403.534L1189.46 519.696C1189.79 518.062 1190.11 516.426 1190.42 514.788L607.329 397.456L1201 385.322C1200.96 383.657 1200.92 381.994 1200.86 380.332L613.194 392.342L1189.24 279.083C1188.91 277.448 1188.58 275.816 1188.24 274.186L606.349 388.59L1148.41 150.966C1147.74 149.445 1147.05 147.927 1146.36 146.413L609.837 381.614L1096.72 57.8383C1095.79 56.4566 1094.85 55.0789 1093.91 53.7053L602.08 380.765L1010.14 -44.3276C1008.93 -45.4737 1007.72 -46.615 1006.5 -47.7514L602.623 372.986L927.162 -110.401C925.774 -111.322 924.382 -112.238 922.987 -113.148L595.153 375.15L808.641 -171.606C807.084 -172.205 805.525 -172.797 803.963 -173.383L592.659 367.779L707.071 -200.803C705.437 -201.122 703.8 -201.435 702.161 -201.741L586.588 372.644L574.636 -212C572.968 -211.961 571.303 -211.916 569.639 -211.864L581.46 366.779L469.926 -200.577C468.291 -200.255 466.658 -199.925 465.028 -199.59L577.714 373.583L343.426 -160.88Z" fill="#5FF4AD"/>
<g filter="url(#filter0_f_4729_17650)">
<rect x="486" y="302" width="196" height="196" fill="#2B2938"/>
</g>
</g>
</g>
<defs>
<filter id="filter0_f_4729_17650" x="406" y="222" width="356" height="356" filterUnits="userSpaceOnUse" color-interpolation-filters="sRGB">
<feFlood flood-opacity="0" result="BackgroundImageFix"/>
<feBlend mode="normal" in="SourceGraphic" in2="BackgroundImageFix" result="shape"/>
<feGaussianBlur stdDeviation="40" result="effect1_foregroundBlur_4729_17650"/>
</filter>
<radialGradient id="paint0_radial_4729_17650" cx="0" cy="0" r="1" gradientUnits="userSpaceOnUse" gradientTransform="translate(589 400) rotate(90) scale(400 589)">
<stop stop-color="#D9D9D9"/>
<stop offset="1" stop-color="#D9D9D9" stop-opacity="0"/>
</radialGradient>
</defs>
</svg>
