<svg width="451" height="528" viewBox="0 0 451 528" fill="none" xmlns="http://www.w3.org/2000/svg">
<path d="M189.096 258.51C190.184 251.634 190.994 246.516 192.061 242.553C193.126 238.599 194.433 235.846 196.485 233.679C197.432 232.679 198.481 231.782 199.617 231.003C202.078 229.315 204.992 228.454 209.042 228.02C213.103 227.586 218.254 227.585 225.173 227.585C234.387 227.585 241.252 227.586 246.529 228.226C251.796 228.865 255.406 230.134 258.151 232.613C259.4 233.741 260.498 235.027 261.418 236.437C263.437 239.536 264.125 243.312 263.928 248.644C263.732 253.984 262.653 260.807 261.205 269.963C260.117 276.839 259.307 281.957 258.24 285.92C257.175 289.874 255.867 292.627 253.816 294.794C252.869 295.794 251.819 296.691 250.684 297.47C248.222 299.158 245.308 300.019 241.258 300.453C237.197 300.888 232.047 300.888 225.127 300.888C215.914 300.888 209.049 300.888 203.772 300.247C198.504 299.608 194.895 298.34 192.149 295.86C190.9 294.732 189.802 293.447 188.883 292.037C186.863 288.938 186.176 285.161 186.372 279.83C186.569 274.489 187.647 267.666 189.096 258.51Z" stroke="#CDCFFD" stroke-opacity="0.32"/>
<path d="M179.888 255.536C180.456 247.388 180.88 241.324 181.803 236.636C182.723 231.962 184.128 228.719 186.62 226.183C189.111 223.647 192.33 222.185 196.987 221.182C201.657 220.177 207.713 219.646 215.85 218.935L228.473 217.83C239.324 216.881 247.409 216.175 253.605 216.506C259.788 216.836 263.998 218.197 267.163 221.306C270.327 224.415 271.761 228.601 272.201 234.776C272.641 240.966 272.078 249.062 271.32 259.928L270.413 272.936C269.845 281.084 269.421 287.148 268.498 291.836C267.578 296.51 266.173 299.753 263.681 302.289C261.19 304.825 257.972 306.287 253.315 307.29C248.644 308.295 242.588 308.826 234.451 309.537L221.828 310.642C210.977 311.591 202.892 312.297 196.696 311.966C190.513 311.635 186.303 310.275 183.139 307.166C179.974 304.057 178.54 299.871 178.1 293.696C177.66 287.506 178.223 279.41 178.981 268.544L179.888 255.536Z" stroke="#CDCFFD" stroke-opacity="0.32"/>
<path opacity="0.9" d="M167.564 249.794C167.42 241.628 167.313 235.55 167.824 230.8C168.333 226.063 169.45 222.709 171.711 219.966C173.972 217.223 177.051 215.485 181.603 214.081C186.168 212.673 192.155 211.616 200.198 210.198L235.738 203.931C246.465 202.04 254.458 200.632 260.66 200.422C266.847 200.212 271.16 201.2 274.583 204.021C278.007 206.843 279.8 210.888 280.776 217.001C281.755 223.129 281.899 231.244 282.091 242.134L282.736 278.677C282.88 286.843 282.986 292.921 282.476 297.672C281.967 302.408 280.849 305.762 278.588 308.505C276.327 311.248 273.249 312.986 268.697 314.39C264.132 315.798 258.145 316.855 250.101 318.273L214.561 324.54C203.834 326.431 195.842 327.839 189.64 328.049C183.453 328.259 179.139 327.271 175.716 324.45C172.293 321.628 170.499 317.583 169.523 311.47C168.545 305.342 168.4 297.227 168.208 286.337L167.564 249.794Z" stroke="#CDCFFD" stroke-opacity="0.32"/>
<path opacity="0.8" d="M150.849 244.042C149.993 235.919 149.358 229.873 149.452 225.097C149.547 220.334 150.368 216.896 152.381 213.966C154.394 211.036 157.31 209.037 161.722 207.241C166.147 205.44 172.019 203.866 179.908 201.752L243.04 184.836C253.561 182.016 261.401 179.917 267.561 179.167C273.706 178.419 278.089 179.028 281.745 181.54C285.401 184.052 287.541 187.926 289.046 193.931C290.555 199.95 291.406 208.021 292.546 218.853L299.451 284.425C300.306 292.547 300.942 298.593 300.847 303.37C300.753 308.133 299.932 311.571 297.918 314.501C295.905 317.431 292.99 319.43 288.578 321.226C284.152 323.027 278.281 324.601 270.391 326.715L207.259 343.631C196.738 346.45 188.898 348.55 182.739 349.299C176.593 350.047 172.21 349.439 168.554 346.927C164.898 344.414 162.759 340.541 161.253 334.536C159.745 328.517 158.894 320.446 157.753 309.613L150.849 244.042Z" stroke="#CDCFFD" stroke-opacity="0.32"/>
<path opacity="0.7" d="M128.673 238.825C127.113 230.807 125.953 224.84 125.631 220.073C125.31 215.32 125.828 211.824 127.578 208.729C129.329 205.635 132.059 203.389 136.298 201.216C140.549 199.036 146.261 196.956 153.936 194.163L249.736 159.295C259.971 155.569 267.598 152.794 273.669 151.511C279.726 150.23 284.145 150.454 288.006 152.638C291.867 154.822 294.336 158.494 296.359 164.346C298.387 170.21 299.938 178.176 302.018 188.868L321.627 289.644C323.187 297.661 324.347 303.629 324.669 308.396C324.99 313.148 324.472 316.645 322.722 319.739C320.971 322.834 318.241 325.079 314.002 327.253C309.751 329.433 304.039 331.513 296.364 334.306L200.564 369.174C190.329 372.9 182.702 375.674 176.631 376.958C170.574 378.239 166.155 378.015 162.294 375.831C158.433 373.647 155.964 369.974 153.941 364.123C151.913 358.259 150.362 350.293 148.282 339.601L128.673 238.825Z" stroke="#CDCFFD" stroke-opacity="0.32"/>
<path opacity="0.6" d="M99.7685 234.927C97.5157 227.076 95.8398 221.232 95.1036 216.512C94.3695 211.805 94.5809 208.277 96.0548 205.041C97.5287 201.806 100.053 199.331 104.086 196.797C108.131 194.255 113.64 191.685 121.043 188.233L254.889 125.819C264.761 121.216 272.117 117.787 278.053 115.979C283.975 114.176 288.397 114.014 292.434 115.853C296.471 117.692 299.25 121.135 301.775 126.788C304.306 132.453 306.546 140.254 309.55 150.724L350.532 293.541C352.784 301.392 354.46 307.236 355.197 311.956C355.931 316.663 355.719 320.192 354.245 323.427C352.771 326.662 350.247 329.137 346.214 331.671C342.169 334.213 336.66 336.784 329.257 340.235L195.411 402.649C185.539 407.252 178.183 410.681 172.247 412.489C166.325 414.293 161.903 414.455 157.866 412.615C153.829 410.776 151.05 407.333 148.525 401.681C145.994 396.015 143.754 388.214 140.75 377.744L99.7685 234.927Z" stroke="#CDCFFD" stroke-opacity="0.32"/>
<path opacity="0.5" d="M62.6478 233.471C59.7193 225.847 57.5405 220.171 56.3956 215.533C55.2542 210.908 55.1571 207.374 56.3435 204.023C57.5298 200.672 59.8286 197.987 63.6256 195.11C67.4338 192.225 72.6981 189.185 79.7715 185.101L257.179 82.6746C266.612 77.2284 273.641 73.1716 279.397 70.8532C285.14 68.54 289.531 67.9934 293.712 69.4738C297.894 70.9541 300.963 74.1417 303.971 79.5528C306.986 84.9762 309.897 92.552 313.803 102.72L387.654 295.001C390.582 302.625 392.761 308.301 393.906 312.939C395.047 317.564 395.144 321.097 393.958 324.449C392.771 327.8 390.473 330.485 386.676 333.362C382.868 336.247 377.603 339.287 370.53 343.371L193.122 445.797C183.689 451.243 176.66 455.3 170.905 457.619C165.162 459.932 160.771 460.478 156.589 458.998C152.407 457.518 149.338 454.33 146.33 448.919C143.315 443.496 140.404 435.92 136.499 425.752L62.6478 233.471Z" stroke="#CDCFFD" stroke-opacity="0.32"/>
<path opacity="0.4" d="M15.5845 236.007C12.0027 228.666 9.33751 223.202 7.79276 218.682C6.25254 214.174 5.84791 210.662 6.73768 207.22C7.62745 203.778 9.68335 200.903 13.2152 197.706C16.7575 194.5 21.7368 191.013 28.4274 186.328L254.771 27.8406C263.693 21.593 270.342 16.9389 275.874 14.1277C281.393 11.3228 285.72 10.3956 290.015 11.5058C294.309 12.6161 297.645 15.5241 301.113 20.6524C304.589 25.7924 308.149 33.0856 312.926 42.8748L434.716 292.463C438.298 299.803 440.963 305.267 442.508 309.788C444.048 314.296 444.453 317.807 443.563 321.249C442.673 324.691 440.617 327.567 437.086 330.763C433.543 333.969 428.564 337.457 421.873 342.142L195.53 500.629C186.608 506.876 179.959 511.531 174.427 514.342C168.908 517.147 164.581 518.074 160.286 516.964C155.991 515.853 152.656 512.945 149.188 507.817C145.712 502.677 142.151 495.384 137.375 485.595L15.5845 236.007Z" stroke="#CDCFFD" stroke-opacity="0.32"/>
</svg>
