<svg width="328" height="106" viewBox="0 0 328 106" fill="none" xmlns="http://www.w3.org/2000/svg">
<path d="M101.091 56.223C101.091 83.7141 78.4609 106 50.5455 106C22.63 106 0 83.7141 0 56.223C0 28.7319 22.63 6.44595 50.5455 6.44595C78.4609 6.44595 101.091 28.7319 101.091 56.223Z" fill="#686868"/>
<path d="M173.818 51.9257C173.818 79.4168 151.025 101.703 122.909 101.703C94.7928 101.703 72 79.4168 72 51.9257C72 24.4346 94.7928 2.14865 122.909 2.14865C151.025 2.14865 173.818 24.4346 173.818 51.9257Z" fill="#8B8B8B"/>
<path d="M248.727 49.777C248.727 77.2681 225.935 99.5541 197.818 99.5541C169.702 99.5541 146.909 77.2681 146.909 49.777C146.909 22.2859 169.702 0 197.818 0C225.935 0 248.727 22.2859 248.727 49.777Z" fill="#AFAFAF"/>
<path d="M328 56.223C328 83.7141 305.207 106 277.091 106C248.975 106 226.182 83.7141 226.182 56.223C226.182 28.7319 248.975 6.44595 277.091 6.44595C305.207 6.44595 328 28.7319 328 56.223Z" fill="#F5F5F5"/>
</svg>
