<svg width="80" height="80" viewBox="0 0 80 80" fill="none" xmlns="http://www.w3.org/2000/svg">
<path d="M35.0706 43.6833C36.7463 44.501 38.5644 44.8157 40.525 44.6273C42.4835 44.4189 44.1957 43.7386 45.6618 42.5864C47.146 41.412 48.2563 39.9216 48.9924 38.1153C49.7264 36.289 49.979 34.3004 49.75 32.1496C49.5361 30.1395 48.87 28.3402 47.7518 26.7516C46.6337 25.1631 45.2357 23.9499 43.5578 23.112C41.8779 22.2541 40.0688 21.9283 38.1308 22.1346C36.1927 22.3409 34.4826 23.0413 33.0004 24.2358C31.5366 25.4081 30.4253 26.8884 29.6666 28.6767C28.9079 30.4651 28.6457 32.3632 28.8801 34.3711C29.1294 36.5197 29.804 38.3995 30.9039 40.0103C32.0038 41.6211 33.3927 42.8455 35.0706 43.6833Z" fill="white"/>
<path fill-rule="evenodd" clip-rule="evenodd" d="M31.0942 68.8362C34.9762 70.0289 39.0184 70.4016 43.221 69.9543C47.4235 69.5069 51.2866 68.2927 54.8101 66.3117C58.3561 64.3486 61.3892 61.8303 63.9092 58.7567C66.4271 55.663 68.2982 52.2113 69.5226 48.4015C70.7449 44.5716 71.1356 40.5863 70.6948 36.4456C70.2541 32.3048 69.0342 28.5011 67.0353 25.0344C65.0342 21.5476 62.4784 18.5671 59.3678 16.0929C56.2551 13.5986 52.7588 11.7651 48.879 10.5925C44.997 9.39973 40.9547 9.02704 36.7522 9.47439C32.5496 9.92174 28.6764 11.137 25.1325 13.1202C21.6068 15.0811 18.5851 17.6084 16.0672 20.7021C13.5472 23.7757 11.676 27.2274 10.4538 31.0573C9.24979 34.8649 8.86818 38.8391 9.30895 42.9799C9.74972 47.1206 10.9604 50.9355 12.9411 54.4244C14.94 57.8911 17.4959 60.8716 20.6086 63.3659C23.7396 65.838 27.2348 67.6614 31.0942 68.8362ZM22.0908 59.5391C19.8275 57.559 17.9401 55.2425 16.4286 52.5895C14.7215 49.539 13.6744 46.1946 13.2871 42.5564C12.8998 38.9182 13.2206 35.4383 14.2494 32.1169C15.2964 28.7732 16.9054 25.7661 19.0763 23.0956C21.2655 20.4028 23.9001 18.2115 26.9801 16.5217C30.0783 14.8095 33.4737 13.7569 37.1662 13.3639C40.8791 12.9687 44.42 13.2829 47.7888 14.3067C51.1759 15.3081 54.2229 16.8947 56.9299 19.0663C59.6348 21.2178 61.8509 23.8177 63.5784 26.866C65.3037 29.8943 66.36 33.2275 66.7473 36.8658C67.1346 40.504 66.8047 43.995 65.7576 47.3386C64.8533 50.2584 63.4918 52.9283 61.6733 55.3484C60.9165 54.5263 59.9092 53.7348 58.6515 52.9739C56.6409 51.7243 54.1267 50.7823 51.1089 50.1481C48.091 49.5139 44.746 49.3923 41.0738 49.7832C37.4017 50.1741 34.1675 50.9961 31.3711 52.2492C28.5748 53.5023 26.3039 54.9434 24.5586 56.5725C23.4814 57.5884 22.6588 58.5773 22.0908 59.5391Z" fill="white"/>
</svg>
