<svg width="80" height="80" viewBox="0 0 80 80" fill="none" xmlns="http://www.w3.org/2000/svg">
<g id="bonus-image / my">
<path id="&#244;&#128;&#145;&#146;" d="M14.2107 40.2207L14.3995 42.5114L36.3972 40.698C35.847 42.0988 35.0848 43.4969 34.1107 44.8922C33.1365 46.2875 32.0538 47.5905 30.8628 48.8014C29.6917 50.0106 28.5149 51.0281 27.3324 51.8539C26.1483 52.6596 25.072 53.1833 24.1036 53.4249C23.5292 53.5532 23.1142 53.7796 22.8586 54.1041C22.6013 54.4086 22.4925 54.8019 22.5323 55.2842C22.5687 55.7263 22.7613 56.1049 23.11 56.42C23.4587 56.7352 23.9194 56.8186 24.4921 56.6703C25.4973 56.3851 26.6529 55.8448 27.9589 55.0493C29.2633 54.2337 30.5703 53.2054 31.8799 51.9646C33.2079 50.702 34.43 49.2559 35.5463 47.6263C36.6825 45.9952 37.5743 44.2122 38.2217 42.2774L38.3719 42.265L40.1807 64.2076L42.6449 64.0045L40.8361 42.0618L40.9563 42.0519C41.9318 43.853 43.1035 45.4658 44.4715 46.8906C45.8396 48.3154 47.272 49.5426 48.7688 50.5724C50.284 51.5804 51.7517 52.3799 53.172 52.9709C54.5907 53.5418 55.8292 53.8847 56.8875 53.9998C57.4568 54.054 57.8876 53.8971 58.18 53.5291C58.4924 53.1594 58.6304 52.7536 58.5939 52.3115C58.5542 51.8292 58.3825 51.459 58.0788 51.2008C57.7735 50.9225 57.317 50.768 56.7093 50.7371C55.7361 50.6757 54.5886 50.3354 53.2668 49.716C51.965 49.0951 50.6375 48.284 49.2843 47.2829C47.931 46.2817 46.6596 45.1727 45.4701 43.9558C44.2806 42.7388 43.2897 41.4853 42.4976 40.1952L64.5253 38.3793L64.3364 36.0886L49.2206 37.3347C50.5766 36.6564 51.7983 35.8173 52.8858 34.8173C53.9732 33.8173 54.8095 32.7065 55.3946 31.4849C55.9997 30.2616 56.2476 28.9869 56.1383 27.6607C55.9677 25.591 55.21 23.9844 53.8652 22.841C52.5387 21.6758 50.9138 21.1725 48.9906 21.331C47.6483 21.4417 46.3734 21.8806 45.1659 22.6477C43.9767 23.3931 42.9093 24.3915 41.9636 25.6428C41.0363 26.8724 40.3242 28.2663 39.8274 29.8246L38.4981 13.6991L36.0339 13.9022L37.3632 30.0277C36.5978 28.5735 35.6571 27.3158 34.5409 26.2547C33.4231 25.1735 32.2066 24.3634 30.8914 23.8244C29.5746 23.2653 28.2551 23.0403 26.9328 23.1493C24.9895 23.3095 23.449 24.0738 22.3112 25.4421C21.1918 26.7887 20.7174 28.4968 20.888 30.5665C20.9973 31.8927 21.4406 33.1104 22.2179 34.2197C23.0151 35.3274 24.032 36.2854 25.2686 37.0939C26.5051 37.9023 27.8577 38.5292 29.3266 38.9746L14.2107 40.2207ZM36.7319 38.1517C35.1291 38.2839 33.5666 38.1699 32.0443 37.8098C30.5204 37.4297 29.1434 36.8756 27.9135 36.1475C26.682 35.3994 25.6834 34.541 24.9177 33.5723C24.1721 32.602 23.7554 31.5844 23.6676 30.5194C23.56 29.2133 23.8353 28.1487 24.4936 27.3257C25.1719 26.501 26.0921 26.0408 27.254 25.945C28.8368 25.8145 30.3757 26.2541 31.8708 27.2638C33.386 28.2718 34.6606 29.6638 35.6945 31.4398C36.7267 33.1957 37.3315 35.1486 37.5087 37.2987L37.5733 38.0824L36.7319 38.1517ZM41.7504 37.738L40.909 37.8074L40.8444 37.0237C40.6672 34.8737 40.9439 32.848 41.6747 30.9468C42.4038 29.0255 43.4232 27.4444 44.7328 26.2035C46.0625 24.961 47.5187 24.2745 49.1014 24.144C50.2834 24.0466 51.2665 24.35 52.0507 25.0541C52.8549 25.7565 53.3109 26.7608 53.4185 28.0669C53.5063 29.1319 53.2519 30.2049 52.6552 31.2858C52.0785 32.3651 51.234 33.3755 50.1215 34.3169C49.0275 35.2365 47.7599 36.0086 46.3187 36.6332C44.896 37.236 43.3732 37.6043 41.7504 37.738ZM59.522 15.122C60.8435 16.2269 61.7783 17.657 62.3264 19.4124C62.8929 21.146 63.2863 23.349 63.5066 26.0215L65.298 47.7532C65.5183 50.4257 65.491 52.6634 65.216 54.4664C64.9611 56.2677 64.2731 57.8316 63.1521 59.1581C62.0327 60.5046 60.5988 61.4624 58.8506 62.0314C57.1023 62.6003 54.8959 62.9946 52.2313 63.2143L30.5943 64.9979C27.9498 65.2159 25.7186 65.1874 23.9008 64.9124C22.083 64.6374 20.5016 63.9282 19.1568 62.7847C17.8153 61.6815 16.8713 60.2623 16.3249 58.527C15.7768 56.7717 15.3926 54.5577 15.1723 51.8852L13.3634 29.9426C13.1547 27.4107 13.1787 25.2542 13.4352 23.473C13.7102 21.67 14.4174 20.0944 15.5568 18.7462C16.6779 17.4197 18.1025 16.4728 19.8307 15.9055C21.5573 15.3181 23.6828 14.9204 26.2071 14.7123L48.0845 12.9089C50.7491 12.6892 52.9802 12.7177 54.778 12.9944C56.5959 13.2694 58.1772 13.9786 59.522 15.122Z" fill="url(#paint0_angular_5070_8124)"/>
</g>
<defs>
<radialGradient id="paint0_angular_5070_8124" cx="0" cy="0" r="1" gradientUnits="userSpaceOnUse" gradientTransform="translate(39.3394 38.9534) rotate(85.2876) scale(25.238 25.1479)">
<stop offset="0.00296127" stop-color="white"/>
<stop offset="0.99338" stop-color="#DAF6FF"/>
</radialGradient>
</defs>
</svg>
