<svg width="16" height="24" viewBox="0 0 16 24" fill="none" xmlns="http://www.w3.org/2000/svg">
<g id="24/ card-yellow_24">
<path id="card" d="M1.16647 5.50173C1.38044 2.89038 1.48742 1.58471 2.33412 0.792353C3.18083 0 4.46908 0 7.04558 0H9.93767C12.9377 0 14.4377 0 15.3141 0.968672C16.1905 1.93734 16.0659 3.45765 15.8168 6.49827L14.8335 18.4983C14.6196 21.1096 14.5126 22.4153 13.6659 23.2076C12.8192 24 11.5309 24 8.95442 24H6.06233C3.06228 24 1.56226 24 0.685886 23.0313C-0.190489 22.0627 -0.0659189 20.5423 0.183221 17.5017L1.16647 5.50173Z" fill="url(#paint0_linear_4890_396)"/>
</g>
<defs>
<linearGradient id="paint0_linear_4890_396" x1="16" y1="5.20338e-07" x2="-1.03329" y2="23.2428" gradientUnits="userSpaceOnUse">
<stop offset="0.10345" stop-color="#4469EC"/>
<stop offset="0.250345" stop-color="#919DF9"/>
<stop offset="0.554017" stop-color="#F7F7FE"/>
<stop offset="0.59938" stop-color="#2848AC"/>
<stop offset="1" stop-color="#64C0F4"/>
</linearGradient>
</defs>
</svg>
