<svg width="36" height="36" viewBox="0 0 36 36" fill="none" xmlns="http://www.w3.org/2000/svg">
<path d="M11.6415 19.5731C11.3564 19.5731 11.1174 19.4766 10.9245 19.2836C10.7317 19.0907 10.6352 18.8516 10.6352 18.5663C10.6352 18.2811 10.7317 18.0461 10.9245 17.8616C11.1174 17.6686 11.3564 17.5721 11.6415 17.5721H16.9874V10.3233C16.9874 10.0465 17.0839 9.81155 17.2767 9.61859C17.4696 9.42562 17.7044 9.32914 17.9811 9.32914C18.2662 9.32914 18.5052 9.42562 18.6981 9.61859C18.891 9.81155 18.9874 10.0465 18.9874 10.3233V18.5663C18.9874 18.8516 18.891 19.0907 18.6981 19.2836C18.5052 19.4766 18.2662 19.5731 17.9811 19.5731H11.6415ZM17.9937 31C16.2159 31 14.543 30.6602 12.9748 29.9806C11.4067 29.3095 10.0231 28.374 8.8239 27.1742C7.63312 25.9745 6.69811 24.5902 6.01887 23.0213C5.33962 21.4524 5 19.7786 5 18C5 16.2214 5.33962 14.5476 6.01887 12.9787C6.69811 11.4098 7.63312 10.0297 8.8239 8.83834C10.0231 7.63859 11.4025 6.69894 12.9623 6.01936C14.5304 5.33979 16.2034 5 17.9811 5C19.7673 5 21.4444 5.33979 23.0126 6.01936C24.5807 6.69894 25.9644 7.63859 27.1635 8.83834C28.3627 10.0297 29.3019 11.4098 29.9811 12.9787C30.6604 14.5476 31 16.2214 31 18C31 19.7786 30.6604 21.4524 29.9811 23.0213C29.3019 24.5902 28.3627 25.9745 27.1635 27.1742C25.9644 28.374 24.5807 29.3095 23.0126 29.9806C21.4444 30.6602 19.7715 31 17.9937 31ZM17.9937 28.4327C19.4444 28.4327 20.7987 28.1642 22.0566 27.6273C23.3145 27.0904 24.4214 26.3437 25.3774 25.3872C26.3333 24.4308 27.0797 23.3233 27.6164 22.0649C28.153 20.8064 28.4214 19.4514 28.4214 18C28.4214 16.557 28.153 15.2062 27.6164 13.9477C27.0797 12.6809 26.3333 11.5692 25.3774 10.6128C24.4214 9.65634 23.3103 8.90965 22.044 8.3727C20.7862 7.83575 19.4319 7.56728 17.9811 7.56728C16.5388 7.56728 15.1845 7.83575 13.9182 8.3727C12.6604 8.90965 11.5577 9.65634 10.6101 10.6128C9.66247 11.5692 8.92034 12.6809 8.38365 13.9477C7.84696 15.2062 7.57862 16.557 7.57862 18C7.57862 19.4514 7.84696 20.8064 8.38365 22.0649C8.92034 23.3233 9.66247 24.4308 10.6101 25.3872C11.566 26.3437 12.673 27.0904 13.9308 27.6273C15.1971 28.1642 16.5514 28.4327 17.9937 28.4327Z" fill="#CDCFFD" fill-opacity="0.6"/>
</svg>
