<svg width="24" height="24" viewBox="0 0 24 24" fill="none" xmlns="http://www.w3.org/2000/svg">
<g id="24 / copy_24">
<path id="Union" fill-rule="evenodd" clip-rule="evenodd" d="M2.96584 2.82671C3.14688 1.79782 4.09339 1 5.13994 1H16.286C16.8415 1 17.3635 1.22793 17.7177 1.65091C18.0717 2.07369 18.2043 2.62711 18.1082 3.17329L17.7563 5.17329C17.6606 5.71722 17.142 6.08058 16.5981 5.98487C16.0542 5.88916 15.6908 5.37064 15.7865 4.82671L16.1079 3H5.13994C5.12491 3 5.07428 3.00884 5.0155 3.05827C4.95676 3.10765 4.93849 3.15676 4.93558 3.17329L3.03059 14H4.8791C5.43138 14 5.8791 14.4477 5.8791 15C5.8791 15.5523 5.43138 16 4.8791 16H2.85255C2.29705 16 1.77504 15.7721 1.42087 15.3491C1.06687 14.9263 0.934251 14.3729 1.03035 13.8267L2.96584 2.82671ZM8.8271 9.82671C9.00814 8.79782 9.95465 8 11.0012 8H22.1472C22.7027 8 23.2247 8.22793 23.5789 8.6509C23.9329 9.07368 24.0655 9.62711 23.9694 10.1733L22.0339 21.1733C21.8529 22.2022 20.9064 23 19.8598 23H8.7138C8.1583 23 7.63629 22.7721 7.28213 22.3491C6.92813 21.9263 6.79551 21.3729 6.89161 20.8267L8.8271 9.82671ZM10.8768 10.0583C10.818 10.1077 10.7997 10.1568 10.7968 10.1733L8.89184 21H19.8598C19.8749 21 19.9255 20.9912 19.9843 20.9417C20.043 20.8923 20.0613 20.8432 20.0642 20.8267L21.9692 10H11.0012C10.9862 10 10.9355 10.0088 10.8768 10.0583Z" fill="black"/>
</g>
</svg>
