<svg width="25" height="27" viewBox="0 1 25 27" fill="none" xmlns="http://www.w3.org/2000/svg">
<path d="M2.137 14.0856H7.51609C7.06783 13.8567 6.66676 13.5764 6.31287 13.2449C5.96685 12.9133 5.69553 12.5423 5.49893 12.1319C5.31019 11.7214 5.21582 11.2754 5.21582 10.7939C5.21582 9.94133 5.495 9.23484 6.05335 8.67438C6.61171 8.11392 7.31555 7.83369 8.16488 7.83369C8.63673 7.83369 9.08499 7.92842 9.50965 8.11787C9.94218 8.29943 10.3354 8.56387 10.6893 8.91119C11.0432 9.25063 11.3459 9.65716 11.5976 10.1308V4.54198H13.1665V10.1308C13.4181 9.65716 13.717 9.25063 14.063 8.91119C14.4169 8.56387 14.8101 8.29943 15.2426 8.11787C15.6752 7.92842 16.1273 7.83369 16.5992 7.83369C17.4485 7.83369 18.1524 8.11392 18.7107 8.67438C19.2691 9.23484 19.5483 9.94133 19.5483 10.7939C19.5483 11.2754 19.45 11.7214 19.2534 12.1319C19.0567 12.5423 18.7854 12.9133 18.4394 13.2449C18.0934 13.5764 17.6923 13.8567 17.2362 14.0856H22.6271V15.5183H14.3343C14.5073 15.8656 14.7511 16.2287 15.0657 16.6076C15.3881 16.9865 15.7499 17.3497 16.1509 17.697C16.5599 18.0364 16.9767 18.3285 17.4013 18.5732C17.8339 18.81 18.2467 18.956 18.6399 19.0113C18.9702 19.0587 19.2219 19.1771 19.3949 19.3665C19.5758 19.556 19.6662 19.8007 19.6662 20.1006C19.6662 20.3848 19.5601 20.6374 19.3477 20.8584C19.1354 21.0795 18.8405 21.1624 18.463 21.1071C18.0226 21.0361 17.5429 20.8703 17.0239 20.6098C16.5048 20.3414 15.9937 19.998 15.4903 19.5797C14.987 19.1613 14.5349 18.6916 14.1338 18.1706C13.7327 17.6417 13.4378 17.0813 13.2491 16.4892H13.1665V24.908H11.5976V16.4892H11.515C11.3184 17.0813 11.0196 17.6417 10.6185 18.1706C10.2253 18.6916 9.77703 19.1613 9.27373 19.5797C8.77828 19.998 8.26711 20.3414 7.74021 20.6098C7.22118 20.8703 6.73753 21.0361 6.28928 21.1071C5.91966 21.1624 5.62869 21.0795 5.41635 20.8584C5.21189 20.6374 5.10965 20.3848 5.10965 20.1006C5.10965 19.8007 5.19616 19.556 5.36917 19.3665C5.55004 19.1771 5.8017 19.0587 6.12413 19.0113C6.50947 18.956 6.91448 18.81 7.33914 18.5732C7.77167 18.3285 8.1924 18.0364 8.60134 17.697C9.01028 17.3497 9.37596 16.9865 9.69839 16.6076C10.0208 16.2287 10.2646 15.8656 10.4298 15.5183H2.137V14.0856ZM11.0668 13.9316H11.3853V13.6238C11.3853 13.087 11.3027 12.5818 11.1375 12.1082C10.9724 11.6346 10.7483 11.2122 10.4651 10.8412C10.182 10.4702 9.85567 10.1781 9.48606 9.96502C9.11644 9.75188 8.72323 9.64532 8.30643 9.64532C7.91323 9.64532 7.59866 9.76767 7.36273 10.0124C7.12681 10.2492 7.00885 10.5768 7.00885 10.9952C7.00885 11.3425 7.11501 11.6938 7.32735 12.049C7.53968 12.3963 7.83458 12.7121 8.21206 12.9962C8.58954 13.2725 9.02207 13.4975 9.50965 13.6712C9.99723 13.8448 10.5163 13.9316 11.0668 13.9316ZM13.6973 13.9316C14.2399 13.9316 14.755 13.8448 15.2426 13.6712C15.7381 13.4975 16.1706 13.2725 16.5402 12.9962C16.9177 12.7121 17.2126 12.3963 17.4249 12.049C17.6451 11.6938 17.7552 11.3425 17.7552 10.9952C17.7552 10.5768 17.6373 10.2492 17.4013 10.0124C17.1654 9.76767 16.8469 9.64532 16.4458 9.64532C16.0369 9.64532 15.6476 9.75188 15.278 9.96502C14.9084 10.1781 14.5781 10.4702 14.2871 10.8412C14.004 11.2122 13.7799 11.6346 13.6147 12.1082C13.4496 12.5818 13.367 13.087 13.367 13.6238V13.9316H13.6973ZM22.0727 4.9564C22.6703 5.56423 23.0557 6.28651 23.2287 7.12325C23.4096 7.95999 23.5 8.91909 23.5 10.0005V19.0113C23.5 20.0849 23.4096 21.044 23.2287 21.8886C23.0557 22.7253 22.6703 23.4476 22.0727 24.0554C21.4592 24.6633 20.7318 25.054 19.8903 25.2277C19.0489 25.4092 18.0934 25.5 17.0239 25.5H7.97614C6.89875 25.5 5.93932 25.4092 5.09786 25.2277C4.26425 25.054 3.54468 24.6633 2.93914 24.0554C2.32574 23.4476 1.93253 22.7253 1.75952 21.8886C1.58651 21.044 1.5 20.0849 1.5 19.0113V9.97686C1.5 8.91119 1.58651 7.95999 1.75952 7.12325C1.94039 6.28651 2.3336 5.56423 2.93914 4.9564C3.54468 4.34858 4.26425 3.95389 5.09786 3.77234C5.93932 3.59078 6.89088 3.5 7.95255 3.5H17.0239C18.0934 3.5 19.0489 3.59078 19.8903 3.77234C20.7318 3.95389 21.4592 4.34858 22.0727 4.9564ZM21.1879 9.669C21.1879 9.05328 21.1329 8.48098 21.0228 7.9521C20.9206 7.42321 20.7004 6.993 20.3622 6.66146C20.0398 6.32992 19.6072 6.1089 19.0646 5.99839C18.5298 5.88787 17.9597 5.83262 17.3542 5.83262H7.68123C7.05996 5.83262 6.47802 5.88787 5.93539 5.99839C5.39276 6.101 4.9563 6.32203 4.62601 6.66146C4.30357 6.98511 4.08731 7.41532 3.97721 7.9521C3.87498 8.48888 3.82386 9.07302 3.82386 9.70452V19.331C3.82386 19.9467 3.87498 20.523 3.97721 21.0597C4.08731 21.5886 4.30357 22.0188 4.62601 22.3504C4.9563 22.6819 5.38883 22.9029 5.92359 23.0135C6.46622 23.124 7.04424 23.1792 7.65764 23.1792H17.3542C17.9597 23.1792 18.5298 23.124 19.0646 23.0135C19.6072 22.9029 20.0398 22.6819 20.3622 22.3504C20.6925 22.0188 20.9127 21.5886 21.0228 21.0597C21.1329 20.523 21.1879 19.9467 21.1879 19.331V9.669Z" fill="#5FF4AD"/>
</svg>
