<svg width="40" height="40" viewBox="0 0 40 40" fill="none" xmlns="http://www.w3.org/2000/svg">
<path d="M0 18.3395V29.4863C0 33.1664 0 35.0066 0.718304 36.4122C1.35014 37.6486 2.35833 38.6538 3.59839 39.2839C5.00814 40 6.8536 40 10.5445 40H21.6782C24.3025 40 25.6147 40 26.8495 39.7044C27.9444 39.4424 28.991 39.0101 29.9509 38.4235C31.0338 37.7619 31.9617 36.8368 33.8174 34.9865L34.9718 33.8355C36.8275 31.9851 37.7552 31.0601 38.4189 29.9804C39.0072 29.0232 39.4407 27.9797 39.7035 26.888C40 25.6568 40 27.6818 40 25.0651V11.1781V10.5137C40 6.8336 40 4.99352 39.2817 3.58788C38.6498 2.35145 37.6416 1.3462 36.4016 0.716208C34.9918 -4.96705e-08 33.1463 0 29.4554 0H28.7891H18.4107C15.8119 0 14.5124 -7.45058e-08 13.2882 0.290309C12.2027 0.547709 11.1642 0.972337 10.21 1.54888C9.13384 2.19915 8.20851 3.10878 6.35786 4.92805L5.11456 6.15027C3.22755 8.00529 2.28404 8.9328 1.60905 10.0189C1.01062 10.9819 0.569383 12.0335 0.301811 13.1344C0 14.3762 0 15.6974 0 18.3395Z" fill="#5FF4AD" fill-opacity="0.08"/>
</svg>
