<svg width="24" height="24" viewBox="0 0 24 24" xmlns="http://www.w3.org/2000/svg">
<path fill-rule="evenodd" clip-rule="evenodd" d="M20 1.5H8.65685C7.99381 1.5 7.35793 1.76339 6.88909 2.23223L2.23223 6.88909C1.76339 7.35793 1.5 7.99381 1.5 8.65685V20C1.5 21.3807 2.61929 22.5 4 22.5H15.3431C16.0062 22.5 16.6421 22.2366 17.1109 21.7678L21.7678 17.1109C22.2366 16.6421 22.5 16.0062 22.5 15.3431V4C22.5 2.61929 21.3807 1.5 20 1.5ZM8.65685 0H20C22.2091 0 24 1.79086 24 4V15.3431C24 16.404 23.5786 17.4214 22.8284 18.1716L18.1716 22.8284C17.4214 23.5786 16.404 24 15.3431 24H4C1.79086 24 0 22.2091 0 20V8.65685C0 7.59599 0.421426 6.57857 1.17157 5.82843L5.82843 1.17157C6.57857 0.421427 7.59599 0 8.65685 0Z" />
</svg>
