<svg width="13" height="24" viewBox="0 0 13 24" fill="none" xmlns="http://www.w3.org/2000/svg">
<g id="Vector">
<path d="M7.82968 3.14712C5.73266 5.93441 5.41702 9.81682 6.6854 13.0512L6.98635 13.8178L7.47384 13.1628C9.54952 10.372 9.95803 6.47334 8.61251 3.25007L8.30494 2.51439L7.82968 3.14712Z" fill="#5FF4AD"/>
<path d="M1.24366 23.7511C4.85409 24.5202 9.11371 23.538 11.4229 20.3711L11.8859 19.7364L11.1281 19.6131C7.50205 19.0225 3.39526 19.9205 0.980562 22.983L0.500001 23.5928L1.24366 23.7511Z" fill="#5FF4AD"/>
<path d="M1.19272 0.68801C0.261013 4.04631 2.02126 7.76143 4.62811 9.76269L5.21367 10.2117L5.35164 9.46986C5.98179 6.08689 4.4635 2.56943 1.92147 0.448325L1.38346 0L1.19272 0.68801Z" fill="#5FF4AD"/>
<path d="M11.8056 10.8162C8.29632 11.9668 5.81552 15.341 5.1692 19.0333L5.04603 19.738L5.71944 19.5835C9.35207 18.7519 11.8992 15.017 12.3985 11.3366L12.5 10.5882L11.8056 10.8162Z" fill="#5FF4AD"/>
</g>
</svg>
