<svg width="13" height="24" viewBox="0 0 13 24" fill="none" xmlns="http://www.w3.org/2000/svg">
<g id="Vector">
<path d="M5.17032 3.14712C7.26734 5.93441 7.58298 9.81682 6.3146 13.0512L6.01365 13.8178L5.52616 13.1628C3.45048 10.372 3.04197 6.47334 4.38749 3.25007L4.69506 2.51439L5.17032 3.14712Z" fill="#5FF4AD"/>
<path d="M11.7563 23.7511C8.14591 24.5202 3.88629 23.538 1.57714 20.3711L1.11413 19.7364L1.87185 19.6131C5.49795 19.0225 9.60474 19.9205 12.0194 22.983L12.5 23.5928L11.7563 23.7511Z" fill="#5FF4AD"/>
<path d="M11.8073 0.68801C12.739 4.04631 10.9787 7.76143 8.37189 9.76269L7.78633 10.2117L7.64836 9.46986C7.01821 6.08689 8.5365 2.56943 11.0785 0.448325L11.6165 0L11.8073 0.68801Z" fill="#5FF4AD"/>
<path d="M1.19436 10.8162C4.70368 11.9668 7.18448 15.341 7.8308 19.0333L7.95397 19.738L7.28056 19.5835C3.64793 18.7519 1.10078 15.017 0.601539 11.3366L0.5 10.5882L1.19436 10.8162Z" fill="#5FF4AD"/>
</g>
</svg>
