<svg width="36" height="36" viewBox="0 0 36 36"  xmlns="http://www.w3.org/2000/svg">
<path fill-rule="evenodd" clip-rule="evenodd" d="M14.9855 6.00017L14.8155 6.00009C13.7557 5.99925 12.9509 5.99862 12.2121 6.30466C11.4732 6.61069 10.9046 7.1802 10.1558 7.93021L10.0357 8.05043L8.05043 10.0357L7.93021 10.1558C7.1802 10.9046 6.61069 11.4732 6.30466 12.2121C5.99862 12.9509 5.99925 13.7557 6.00009 14.8155L6.00017 14.9855V23.0002L6.00017 23.0707C6.00014 24.4249 6.00011 25.5415 6.11893 26.4252C6.24367 27.3531 6.51564 28.1725 7.17175 28.8286C7.82786 29.4847 8.64728 29.7567 9.57511 29.8814C10.4589 30.0002 11.5755 30.0002 12.9296 30.0002H12.9296H13.0002H21.0149L21.1848 30.0003H21.1848C22.2447 30.0011 23.0494 30.0017 23.7883 29.6957C24.5271 29.3897 25.0957 28.8202 25.8445 28.0702L25.9646 27.9499L27.9499 25.9646L28.0701 25.8445C28.8202 25.0957 29.3897 24.5271 29.6957 23.7883C30.0017 23.0494 30.0011 22.2447 30.0003 21.1848V21.1848L30.0002 21.0149V13.0002V12.9296V12.9296C30.0002 11.5755 30.0002 10.4589 29.8814 9.57511C29.7567 8.64728 29.4847 7.82786 28.8286 7.17175C28.1725 6.51564 27.3531 6.24367 26.4252 6.11893C25.5415 6.00011 24.4249 6.00014 23.0707 6.00017L23.0002 6.00017H14.9855ZM12.9774 8.15241C13.3023 8.01787 13.6776 8.00017 14.9855 8.00017H23.0002C24.4427 8.00017 25.4239 8.0023 26.1587 8.10109C26.8648 8.19602 27.1918 8.36339 27.4144 8.58596C27.637 8.80853 27.8043 9.13555 27.8993 9.84161C27.998 10.5764 28.0002 11.5577 28.0002 13.0002V21.0149C28.0002 22.3227 27.9825 22.6981 27.8479 23.0229C27.7134 23.3477 27.4605 23.6256 26.5357 24.5504L24.5504 26.5357C23.6256 27.4605 23.3477 27.7134 23.0229 27.8479C22.6981 27.9825 22.3227 28.0002 21.0149 28.0002H13.0002C11.5577 28.0002 10.5764 27.998 9.84161 27.8993C9.13555 27.8043 8.80853 27.637 8.58596 27.4144C8.36339 27.1918 8.19602 26.8648 8.10109 26.1587C8.0023 25.4239 8.00017 24.4427 8.00017 23.0002V14.9855C8.00017 13.6776 8.01787 13.3023 8.15241 12.9774C8.28695 12.6526 8.53985 12.3747 9.46464 11.4499L11.4499 9.46464C12.3747 8.53985 12.6526 8.28695 12.9774 8.15241ZM20.8905 12.944C20.1627 12.3148 19.1902 12.0001 17.9732 12.0001C17.1738 12.0001 16.4699 12.1462 15.8614 12.4383C15.2648 12.7305 14.8055 13.1406 14.4833 13.6687C14.1612 14.1968 14.0001 14.7979 14.0001 15.4721H15.9151C15.9151 14.8878 16.1 14.4327 16.4699 14.1069C16.8398 13.781 17.3468 13.6181 17.9911 13.6181C18.6354 13.6181 19.1365 13.7867 19.4945 14.1237C19.8644 14.4608 20.0493 14.9271 20.0493 15.5226C20.0493 16.3428 19.7391 16.899 19.1187 17.1912C18.5102 17.4833 17.6272 17.6294 16.4699 17.6294H15.8793L15.9688 20.2754H17.7406L17.8122 18.944C19.0769 18.944 20.0911 18.6574 20.8547 18.0844C21.6183 17.5114 22.0001 16.6574 22.0001 15.5226C22.0001 14.4327 21.6302 13.5732 20.8905 12.944ZM15.8972 23.6462C16.1477 23.8822 16.458 24.0001 16.8278 24.0001C17.1858 24.0001 17.49 23.8822 17.7406 23.6462C17.9911 23.4103 18.1164 23.1181 18.1164 22.7698C18.1164 22.4215 17.9911 22.1294 17.7406 21.8934C17.49 21.6574 17.1858 21.5395 16.8278 21.5395C16.458 21.5395 16.1477 21.6574 15.8972 21.8934C15.6466 22.1294 15.5213 22.4215 15.5213 22.7698C15.5213 23.1181 15.6466 23.4103 15.8972 23.6462Z" />
</svg>
