<svg width="41" height="40" viewBox="0 0 41 40"  xmlns="http://www.w3.org/2000/svg">
<path d="M24.5 0H18.556C15.286 0 13.651 0 12.1808 0.608963C10.7107 1.21793 9.55453 2.37405 7.24229 4.68629L5.1863 6.74228L5.18629 6.74228C2.87405 9.05452 1.71793 10.2106 1.10896 11.6808C0.5 13.151 0.5 14.786 0.5 18.056V24C0.5 31.5425 0.5 35.3137 2.84315 37.6569C5.18629 40 8.95753 40 16.5 40H29.0714C32.2633 40 33.8593 40 35.1422 39.5511C37.4402 38.747 39.247 36.9402 40.0511 34.6422C40.5 33.3593 40.5 31.7633 40.5 28.5714V16C40.5 8.45753 40.5 4.68629 38.1569 2.34315C35.8137 0 32.0425 0 24.5 0Z" />
</svg>
