<svg width="36" height="28" viewBox="0 0 36 28"  xmlns="http://www.w3.org/2000/svg">
<path id="bg" d="M20 0H15.6582C13.0556 0 11.7543 0 10.5414 0.397101C10.4698 0.420538 10.3986 0.444986 10.3277 0.470436C9.12648 0.901635 8.09931 1.70054 6.04498 3.29835L5.1852 3.96707C3.13215 5.56389 2.10562 6.3623 1.40159 7.3893C0.960321 8.03299 0.615617 8.73778 0.37843 9.48128C0 10.6675 0 11.968 0 14.5689C0 19.6462 0 22.1848 1.1105 24.0663C1.79784 25.2308 2.76915 26.2022 3.9337 26.8895C5.81521 28 8.35384 28 13.4311 28H28C32.4183 28 36 24.4183 36 20V16C36 8.45753 36 4.68629 33.6569 2.34315C31.3137 0 27.5425 0 20 0Z"/>
</svg>
