<svg width="36" height="28" viewBox="0 0 36 28"  xmlns="http://www.w3.org/2000/svg">
<path id="bg" d="M22.5689 0H8C3.58172 0 0 3.58172 0 8V12C0 19.5425 0 23.3137 2.34315 25.6569C4.68629 28 8.45753 28 16 28H20.3418C22.9444 28 24.2457 28 25.4586 27.6029C25.5302 27.5795 25.6014 27.555 25.6723 27.5296C26.8735 27.0984 27.9007 26.2995 29.955 24.7017L30.8148 24.0329L30.8148 24.0329C32.8679 22.4361 33.8944 21.6377 34.5984 20.6107C35.0397 19.967 35.3844 19.2622 35.6216 18.5187C36 17.3325 36 16.032 36 13.4311C36 8.35383 36 5.81521 34.8895 3.9337C34.2022 2.76915 33.2308 1.79784 32.0663 1.1105C30.1848 0 27.6462 0 22.5689 0Z"/>
</svg>
