<svg width="41" height="40" viewBox="0 0 41 40" fill="none" xmlns="http://www.w3.org/2000/svg">
<path d="M24.5 0H11.9286C8.73669 0 7.14075 0 5.85777 0.448933C3.55979 1.25303 1.75303 3.05979 0.948933 5.35777C0.5 6.64075 0.5 8.23669 0.5 11.4286V24C0.5 31.5425 0.5 35.3137 2.84315 37.6569C5.18629 40 8.95753 40 16.5 40H22.444C25.714 40 27.349 40 28.8192 39.391C30.2893 38.7821 31.4455 37.626 33.7577 35.3137L35.8137 33.2577C38.1259 30.9455 39.2821 29.7894 39.891 28.3192C40.5 26.849 40.5 25.214 40.5 21.944V16C40.5 8.45753 40.5 4.68629 38.1569 2.34315C35.8137 0 32.0425 0 24.5 0Z" fill="#5FF4AD" fill-opacity="0.12"/>
</svg>
