<svg width="24" height="24" viewBox="0 0 24 24" xmlns="http://www.w3.org/2000/svg">
<path d="M6.40897 13.492L1.44052 11.8863C1.44052 11.8863 0.846734 11.6473 1.03793 11.1055C1.07729 10.9938 1.15669 10.8987 1.3942 10.7353C2.49508 9.9742 21.7705 3.10244 21.7705 3.10244C21.7705 3.10244 22.3148 2.92054 22.6358 3.04152C22.7152 3.0659 22.7866 3.11077 22.8428 3.17153C22.899 3.23229 22.9379 3.30676 22.9556 3.38733C22.9902 3.52963 23.0047 3.67603 22.9986 3.82231C22.9971 3.94885 22.9817 4.06614 22.97 4.25006C22.8526 6.12883 19.3394 20.1507 19.3394 20.1507C19.3394 20.1507 19.1292 20.9712 18.3761 20.9993C18.191 21.0052 18.0067 20.9741 17.834 20.9079C17.6613 20.8416 17.5038 20.7415 17.3709 20.6136C15.8931 19.3527 10.7852 15.9479 9.65647 15.1991C9.63101 15.1819 9.60957 15.1595 9.59359 15.1333C9.57761 15.1072 9.56746 15.078 9.56384 15.0476C9.54806 14.9687 9.63458 14.871 9.63458 14.871C9.63458 14.871 18.5288 7.02943 18.7655 6.20623C18.7838 6.14246 18.7146 6.11099 18.6216 6.13893C18.0309 6.35448 7.79029 12.7689 6.66006 13.4768C6.5787 13.5012 6.49271 13.5064 6.40897 13.492Z" />
</svg>
