<svg width="16" height="36" viewBox="0 0 16 36" fill="none" xmlns="http://www.w3.org/2000/svg">
<path d="M5.82857 27.373L8.61714 9.44397L9.89714 2H12L10.72 9.44397L7.06286 27.373H5.82857ZM5.46286 34C5.03619 34 4.68571 33.879 4.41143 33.6369C4.13714 33.3645 4 33.0468 4 32.6837C4 32.139 4.15238 31.7154 4.45714 31.4128C4.7619 31.0799 5.1581 30.9135 5.64571 30.9135C6.07238 30.9135 6.42286 31.0496 6.69714 31.322C6.97143 31.5641 7.10857 31.8667 7.10857 32.2298C7.10857 32.7745 6.95619 33.2132 6.65143 33.5461C6.34667 33.8487 5.95048 34 5.46286 34Z" fill="#FF9900"/>
</svg>
